<svg xmlns="http://www.w3.org/2000/svg" xmlns:xlink="http://www.w3.org/1999/xlink" width="1366" zoomAndPan="magnify" viewBox="0 0 1024.5 576" height="768" preserveAspectRatio="xMidYMid meet" version="1.0"><defs><g/><clipPath id="2d83864fab"><path d="M 0 46 L 1024 46 L 1024 575.859375 L 0 575.859375 Z M 0 46 " clip-rule="nonzero"/></clipPath></defs><g clip-path="url(#2d83864fab)"><path stroke-linecap="butt" transform="matrix(0.749634, 0, 0, 0.749634, 0, 136.705644)" fill="none" stroke-linejoin="miter" d="M 528.955966 84.980808 C 525.558475 84.980808 522.301678 86.200153 519.451329 87.831157 C 494.465181 105.079154 442.184468 197.957798 402.6704 283.640223 C 373.202899 286.3603 337.623042 289.210649 301.506464 292.467446 C 333.688831 230.817579 364.240193 172.294237 364.240193 152.331373 C 364.240193 135.088586 342.104394 87.831157 282.491979 87.831157 C 213.51041 87.831157 134.075825 151.789442 134.075825 205.695948 C 134.075825 224.027808 146.295328 253.630791 169.650472 253.630791 C 169.650472 201.219806 269.188614 117.840588 308.702683 117.840588 C 318.071837 117.840588 322.55319 122.321941 322.55319 128.434298 C 322.55319 145.135154 278.146109 222.943946 238.632041 296.406868 C 212.426548 298.037872 187.982332 299.121734 168.56661 299.121734 C 166.800123 300.34629 166.258192 303.603087 166.258192 307.542509 C 166.258192 319.762012 174.131825 340.266806 200.201834 340.266806 C 204.141256 340.266806 209.711682 339.724875 216.36597 339.182944 C 195.725692 379.780875 180.786113 414.818801 180.786113 430.977726 C 180.786113 447.678582 207.945195 466.552373 223.015047 466.552373 C 227.4964 466.552373 230.758408 464.921369 232.524895 461.529089 C 231.300339 436.542941 254.655483 385.351301 281.408117 331.439583 C 314.809829 327.505372 352.562621 321.934947 387.595337 317.589077 C 368.179615 364.304575 354.329108 405.444436 354.329108 425.4073 C 354.329108 450.393448 374.833903 471.033726 398.189047 471.033726 C 422.628053 471.033726 448.838756 447.136651 448.838756 431.519657 C 448.838756 429.346722 448.296825 426.496373 446.665821 424.865369 C 438.786977 430.977726 425.483612 436.00101 419.371255 436.00101 C 413.806041 436.00101 410.950481 432.061588 410.950481 425.4073 C 410.950481 409.248376 427.656547 363.080019 451.011691 310.257375 C 464.45575 309.173513 475.58618 308.626371 483.871472 308.626371 C 487.268962 309.715444 488.894756 306.453436 488.894756 301.430152 C 488.894756 292.467446 482.78761 278.075008 470.020965 278.075008 L 466.081543 278.075008 C 495.549044 216.289658 532.212763 151.247511 561.138333 116.209584 C 562.899609 115.125722 563.446751 113.359235 563.446751 111.1863 C 563.446751 101.681664 543.890335 84.980808 528.955966 84.980808 Z M 548.965728 455.963874 C 584.540374 455.963874 626.227378 353.710865 650.671595 323.159502 L 655.152947 324.243364 C 649.040591 340.266806 641.844372 361.449015 641.844372 385.893232 C 641.844372 420.925947 664.115653 436.00101 677.96616 436.00101 C 701.321304 436.00101 745.858656 393.766865 800.312305 303.061156 C 800.312305 295.323006 790.401219 288.668718 784.830794 288.668718 C 738.662437 356.425731 714.087949 382.089293 696.839951 382.089293 C 691.274736 382.089293 689.101801 378.155082 689.101801 370.953652 C 689.101801 348.687581 711.367872 302.519225 717.480229 301.430152 C 718.569302 300.34629 719.111233 298.579803 719.111233 296.406868 C 719.111233 284.729296 698.064507 268.570371 677.96616 268.570371 C 650.671595 268.570371 575.713151 404.902505 557.78774 404.902505 C 554.530943 404.902505 551.680594 402.594088 551.680594 393.766865 C 551.680594 351.402447 612.924013 226.336226 672.942876 226.336226 C 690.185663 226.336226 702.405166 232.990514 701.863235 257.976661 C 716.396366 255.803726 722.503512 246.29909 722.503512 235.163449 C 722.503512 214.658654 686.928866 187.91123 656.919434 187.91123 C 589.563658 187.91123 495.595941 316.911663 495.595941 392.683003 C 495.595941 424.865369 521.671162 455.963874 548.965728 455.963874 Z M 984.516751 288.668718 C 963.334543 320.851085 896.525909 409.248376 867.600339 409.248376 C 862.712538 409.248376 860.40412 406.533509 860.40412 402.052157 C 860.40412 378.155082 918.250048 299.121734 918.250048 265.855505 C 918.250048 232.990514 862.712538 229.598234 862.712538 216.831589 C 862.712538 211.266374 872.623623 199.588802 886.609613 186.822157 C 892.180039 177.859452 864.343542 157.901799 852.118828 157.901799 C 835.959903 157.901799 815.319626 185.196364 815.319626 205.695948 C 815.319626 212.350236 817.628044 217.378731 820.890052 221.860084 C 812.60476 241.817737 799.296184 265.855505 784.768263 288.668718 C 784.768263 295.864937 793.730969 303.061156 800.385257 303.061156 C 816.544182 276.991146 829.852757 254.719864 840.988398 235.710591 C 852.66597 241.817737 863.7964 248.065576 863.7964 259.065734 C 863.7964 286.3603 802.016261 348.687581 802.016261 398.112735 C 802.016261 429.346722 825.913336 453.790939 850.357552 453.790939 C 888.240617 453.790939 939.979399 393.766865 999.998262 303.061156 C 999.998262 295.323006 990.081966 288.668718 984.516751 288.668718 Z M 1184.192287 288.668718 C 1163.010079 320.851085 1096.201445 409.248376 1067.275875 409.248376 C 1062.388074 409.248376 1060.079656 406.533509 1060.079656 402.052157 C 1060.079656 378.155082 1117.925584 299.121734 1117.925584 265.855505 C 1117.925584 232.990514 1062.388074 229.598234 1062.388074 216.831589 C 1062.388074 211.266374 1072.299159 199.588802 1086.285149 186.822157 C 1091.855575 177.859452 1064.019078 157.901799 1051.794364 157.901799 C 1035.635439 157.901799 1014.995162 185.196364 1014.995162 205.695948 C 1014.995162 212.350236 1017.30358 217.378731 1020.565588 221.860084 C 1012.280296 241.817737 998.97172 265.855505 984.443799 288.668718 C 984.443799 295.864937 993.406505 303.061156 1000.060793 303.061156 C 1016.219718 276.991146 1029.528293 254.719864 1040.663934 235.710591 C 1052.341506 241.817737 1063.471936 248.065576 1063.471936 259.065734 C 1063.471936 286.3603 1001.691797 348.687581 1001.691797 398.112735 C 1001.691797 429.346722 1025.588872 453.790939 1050.033088 453.790939 C 1087.916153 453.790939 1139.654935 393.766865 1199.673798 303.061156 C 1199.673798 295.323006 1189.757502 288.668718 1184.192287 288.668718 Z M 1285.418754 186.280226 C 1292.614973 170.663233 1317.60112 127.892367 1341.503406 113.359235 C 1343.264682 112.817304 1344.353755 111.733442 1344.353755 110.102438 C 1344.353755 102.223595 1325.344481 84.438877 1304.839687 84.438877 C 1280.937401 84.438877 1259.213261 125.583949 1259.213261 148.939093 C 1259.213261 175.144585 1277.00319 187.364088 1285.418754 186.280226 Z M 1194.713045 449.309586 C 1238.572984 449.309586 1302.666751 340.94422 1327.105757 303.061156 C 1327.105757 295.323006 1317.059189 288.668718 1311.493974 288.668718 C 1263.694614 359.823222 1230.829623 403.136019 1210.324828 403.136019 C 1203.535057 403.136019 1200.820191 397.028873 1200.820191 388.743581 C 1200.820191 350.860516 1249.161482 254.177933 1269.80176 243.042292 C 1271.974695 241.275806 1272.521837 239.644802 1272.521837 237.471867 C 1272.521837 225.794295 1254.189977 210.724443 1234.227113 210.724443 C 1213.044905 210.724443 1144.063336 337.55194 1144.063336 391.458447 C 1144.063336 426.496373 1174.072767 449.309586 1194.713045 449.309586 Z M 1194.713045 449.309586 " stroke="#000776" stroke-width="36.153324" stroke-opacity="1" stroke-miterlimit="4"/></g><g fill="#4952ec" fill-opacity="1"><g transform="translate(84.626664, 463.546118)"><g><path d="M 311.875 -263.09375 C 309.375 -263.09375 306.875 -262.265625 304.796875 -261.015625 C 286.03125 -248.09375 246.84375 -178.453125 217.234375 -114.25 C 195.140625 -112.15625 168.453125 -110.078125 141.34375 -107.578125 C 165.53125 -153.859375 188.46875 -197.640625 188.46875 -212.640625 C 188.46875 -225.578125 171.78125 -261.015625 127.171875 -261.015625 C 75.46875 -261.015625 15.84375 -213.0625 15.84375 -172.625 C 15.84375 -158.859375 25.015625 -136.765625 42.53125 -136.765625 C 42.53125 -175.953125 117.15625 -238.5 146.765625 -238.5 C 153.859375 -238.5 157.1875 -235.15625 157.1875 -230.578125 C 157.1875 -218.0625 123.828125 -159.6875 94.234375 -104.65625 C 74.640625 -103.40625 56.28125 -102.578125 41.6875 -102.578125 C 40.4375 -101.734375 40.03125 -99.234375 40.03125 -96.3125 C 40.03125 -87.140625 45.859375 -71.71875 65.46875 -71.71875 C 68.375 -71.71875 72.546875 -72.140625 77.546875 -72.546875 C 62.125 -42.109375 50.875 -15.84375 50.875 -3.75 C 50.875 8.75 71.296875 22.9375 82.5625 22.9375 C 85.890625 22.9375 88.390625 21.6875 89.640625 19.1875 C 88.8125 0.421875 106.328125 -37.9375 126.34375 -78.390625 C 151.359375 -81.3125 179.703125 -85.46875 205.96875 -88.8125 C 191.375 -53.78125 180.953125 -22.9375 180.953125 -7.921875 C 180.953125 10.84375 196.390625 26.265625 213.890625 26.265625 C 232.25 26.265625 251.84375 8.34375 251.84375 -3.328125 C 251.84375 -5 251.421875 -7.09375 250.171875 -8.34375 C 244.328125 -3.75 234.328125 0 229.734375 0 C 225.578125 0 223.484375 -2.921875 223.484375 -7.921875 C 223.484375 -20.015625 236 -54.625 253.5 -94.234375 C 263.515625 -95.0625 271.859375 -95.484375 278.109375 -95.484375 C 280.609375 -94.640625 281.859375 -97.15625 281.859375 -100.90625 C 281.859375 -107.578125 277.28125 -118.421875 267.6875 -118.421875 L 264.765625 -118.421875 C 286.859375 -164.703125 314.375 -213.484375 336.0625 -239.75 C 337.3125 -240.578125 337.734375 -241.828125 337.734375 -243.5 C 337.734375 -250.59375 323.140625 -263.09375 311.875 -263.09375 Z M 311.875 -263.09375 "/></g></g></g><g fill="#4952ec" fill-opacity="1"><g transform="translate(359.810901, 463.546118)"><g><path d="M 51.703125 15.015625 C 78.390625 15.015625 109.65625 -61.703125 128 -84.640625 L 131.34375 -83.8125 C 126.75 -71.71875 121.328125 -55.875 121.328125 -37.53125 C 121.328125 -11.25 138.015625 0 148.4375 0 C 165.953125 0 199.296875 -31.6875 240.171875 -99.65625 C 240.171875 -105.484375 232.65625 -110.5 228.484375 -110.5 C 193.890625 -59.625 175.53125 -40.4375 162.609375 -40.4375 C 158.4375 -40.4375 156.78125 -43.359375 156.78125 -48.78125 C 156.78125 -65.46875 173.453125 -100.0625 178.03125 -100.90625 C 178.875 -101.734375 179.296875 -102.984375 179.296875 -104.65625 C 179.296875 -113.40625 163.453125 -125.5 148.4375 -125.5 C 128 -125.5 71.71875 -23.34375 58.375 -23.34375 C 55.875 -23.34375 53.78125 -25.015625 53.78125 -31.6875 C 53.78125 -63.375 99.65625 -157.1875 144.6875 -157.1875 C 157.609375 -157.1875 166.78125 -152.1875 166.359375 -133.421875 C 177.203125 -135.09375 181.796875 -142.1875 181.796875 -150.515625 C 181.796875 -165.953125 155.109375 -185.96875 132.59375 -185.96875 C 82.140625 -185.96875 11.671875 -89.234375 11.671875 -32.515625 C 11.671875 -8.34375 31.265625 15.015625 51.703125 15.015625 Z M 51.703125 15.015625 "/></g></g></g><g fill="#4952ec" fill-opacity="1"><g transform="translate(544.51795, 463.546118)"><g><path d="M 193.46875 -110.5 C 177.625 -86.3125 127.59375 -20.015625 105.90625 -20.015625 C 102.15625 -20.015625 100.484375 -22.09375 100.484375 -25.4375 C 100.484375 -43.359375 143.84375 -102.578125 143.84375 -127.59375 C 143.84375 -152.1875 102.15625 -154.6875 102.15625 -164.28125 C 102.15625 -168.453125 109.65625 -177.203125 120.078125 -186.796875 C 124.25 -193.46875 103.40625 -208.46875 94.234375 -208.46875 C 82.140625 -208.46875 66.71875 -188.046875 66.71875 -172.625 C 66.71875 -167.609375 68.375 -163.859375 70.875 -160.53125 C 64.625 -145.515625 54.625 -127.59375 43.78125 -110.5 C 43.78125 -105.078125 50.453125 -99.65625 55.453125 -99.65625 C 67.546875 -119.25 77.546875 -135.921875 85.890625 -150.109375 C 94.640625 -145.515625 102.984375 -140.9375 102.984375 -132.59375 C 102.984375 -112.15625 56.703125 -65.46875 56.703125 -28.359375 C 56.703125 -5 74.640625 13.34375 92.984375 13.34375 C 121.328125 13.34375 160.109375 -31.6875 205.140625 -99.65625 C 205.140625 -105.484375 197.640625 -110.5 193.46875 -110.5 Z M 193.46875 -110.5 "/></g></g></g><g fill="#4952ec" fill-opacity="1"><g transform="translate(694.201547, 463.546118)"><g><path d="M 193.46875 -110.5 C 177.625 -86.3125 127.59375 -20.015625 105.90625 -20.015625 C 102.15625 -20.015625 100.484375 -22.09375 100.484375 -25.4375 C 100.484375 -43.359375 143.84375 -102.578125 143.84375 -127.59375 C 143.84375 -152.1875 102.15625 -154.6875 102.15625 -164.28125 C 102.15625 -168.453125 109.65625 -177.203125 120.078125 -186.796875 C 124.25 -193.46875 103.40625 -208.46875 94.234375 -208.46875 C 82.140625 -208.46875 66.71875 -188.046875 66.71875 -172.625 C 66.71875 -167.609375 68.375 -163.859375 70.875 -160.53125 C 64.625 -145.515625 54.625 -127.59375 43.78125 -110.5 C 43.78125 -105.078125 50.453125 -99.65625 55.453125 -99.65625 C 67.546875 -119.25 77.546875 -135.921875 85.890625 -150.109375 C 94.640625 -145.515625 102.984375 -140.9375 102.984375 -132.59375 C 102.984375 -112.15625 56.703125 -65.46875 56.703125 -28.359375 C 56.703125 -5 74.640625 13.34375 92.984375 13.34375 C 121.328125 13.34375 160.109375 -31.6875 205.140625 -99.65625 C 205.140625 -105.484375 197.640625 -110.5 193.46875 -110.5 Z M 193.46875 -110.5 "/></g></g></g><g fill="#4952ec" fill-opacity="1"><g transform="translate(843.885144, 463.546118)"><g><path d="M 119.671875 -187.21875 C 125.078125 -198.890625 143.84375 -230.984375 161.78125 -241.828125 C 163.03125 -242.25 163.859375 -243.078125 163.859375 -244.328125 C 163.859375 -250.171875 149.6875 -263.515625 134.265625 -263.515625 C 116.328125 -263.515625 100.0625 -232.65625 100.0625 -215.140625 C 100.0625 -195.546875 113.40625 -186.375 119.671875 -187.21875 Z M 51.703125 10 C 84.640625 10 132.59375 -71.296875 150.9375 -99.65625 C 150.9375 -105.484375 143.4375 -110.5 139.265625 -110.5 C 103.40625 -57.125 78.796875 -24.59375 63.375 -24.59375 C 58.375 -24.59375 56.28125 -29.1875 56.28125 -35.4375 C 56.28125 -63.796875 92.5625 -136.34375 107.984375 -144.6875 C 109.65625 -145.9375 110.078125 -147.1875 110.078125 -148.859375 C 110.078125 -157.609375 96.3125 -168.859375 81.3125 -168.859375 C 65.46875 -168.859375 13.765625 -73.796875 13.765625 -33.359375 C 13.765625 -7.09375 36.28125 10 51.703125 10 Z M 51.703125 10 "/></g></g></g></svg>